<?xml version="1.0" encoding="UTF-8" standalone="no"?>
<!-- Created with Inkscape (http://www.inkscape.org/) -->

<svg
   width="32"
   height="32"
   viewBox="0 0 8.4666667 8.4666667"
   version="1.1"
   id="svg5"
   sodipodi:docname="AI.svg"
   inkscape:version="1.1.2 (b8e25be833, 2022-02-05)"
   xmlns:inkscape="http://www.inkscape.org/namespaces/inkscape"
   xmlns:sodipodi="http://sodipodi.sourceforge.net/DTD/sodipodi-0.dtd"
   xmlns="http://www.w3.org/2000/svg"
   xmlns:svg="http://www.w3.org/2000/svg">
  <sodipodi:namedview
     id="namedview7"
     pagecolor="#000000"
     bordercolor="#666666"
     borderopacity="1.0"
     inkscape:pageshadow="2"
     inkscape:pageopacity="0"
     inkscape:pagecheckerboard="true"
     inkscape:document-units="mm"
     showgrid="false"
     units="px"
     inkscape:snap-global="true"
     inkscape:zoom="23.689562"
     inkscape:cx="16.652904"
     inkscape:cy="15.280992"
     inkscape:window-width="1920"
     inkscape:window-height="1017"
     inkscape:window-x="-8"
     inkscape:window-y="-8"
     inkscape:window-maximized="1"
     inkscape:current-layer="layer5" />
  <defs
     id="defs2">
    <filter
       id="selectable_hidder_filter"
       width="1"
       height="1"
       x="0"
       y="0"
       style="color-interpolation-filters:sRGB;"
       inkscape:label="LPE boolean visibility">
      <feComposite
         id="boolops_hidder_primitive"
         result="composite1"
         operator="arithmetic"
         in2="SourceGraphic"
         in="BackgroundImage" />
    </filter>
    <inkscape:path-effect
       effect="bool_op"
       id="path-effect1541"
       is_visible="true"
       lpeversion="1"
       operand-path=""
       operation="union"
       swap-operands="false"
       rmv-inner="false"
       filltype-this="from-curve"
       filter=""
       filltype-operand="from-curve" />
    <inkscape:path-effect
       effect="mirror_symmetry"
       start_point="4.25,0"
       end_point="4.25,8.5"
       center_point="3.2947878,3.568423"
       id="path-effect1539"
       is_visible="true"
       lpeversion="1.1"
       mode="free"
       discard_orig_path="false"
       fuse_paths="true"
       oposite_fuse="false"
       split_items="false"
       split_open="false" />
    <inkscape:path-effect
       effect="mirror_symmetry"
       start_point="4.25,0"
       end_point="4.25,8.5"
       center_point="4.25,4.25"
       id="path-effect1431"
       is_visible="true"
       lpeversion="1.1"
       mode="free"
       discard_orig_path="false"
       fuse_paths="true"
       oposite_fuse="false"
       split_items="false"
       split_open="false" />
    <inkscape:path-effect
       effect="mirror_symmetry"
       start_point="4.25,0"
       end_point="4.25,8.5"
       center_point="4.25,4.25"
       id="path-effect1026"
       is_visible="true"
       lpeversion="1.1"
       mode="free"
       discard_orig_path="false"
       fuse_paths="true"
       oposite_fuse="false"
       split_items="false"
       split_open="false" />
    <inkscape:path-effect
       effect="mirror_symmetry"
       start_point="4.25,0"
       end_point="4.25,8.5"
       center_point="4.25,4.25"
       id="path-effect940"
       is_visible="true"
       lpeversion="1.1"
       mode="free"
       discard_orig_path="false"
       fuse_paths="true"
       oposite_fuse="false"
       split_items="false"
       split_open="false" />
    <inkscape:path-effect
       effect="mirror_symmetry"
       start_point="4.25,0"
       end_point="4.25,8.5"
       center_point="4.25,4.25"
       id="path-effect919"
       is_visible="true"
       lpeversion="1.1"
       mode="free"
       discard_orig_path="false"
       fuse_paths="true"
       oposite_fuse="false"
       split_items="false"
       split_open="false" />
    <marker
       style="overflow:visible"
       id="TriangleInL"
       refX="0.0"
       refY="0.0"
       orient="auto"
       inkscape:stockid="TriangleInL"
       inkscape:isstock="true">
      <path
         transform="scale(-0.8)"
         style="fill-rule:evenodd;fill:context-stroke;stroke:context-stroke;stroke-width:1.0pt"
         d="M 5.77,0.0 L -2.88,5.0 L -2.88,-5.0 L 5.77,0.0 z "
         id="path3437" />
    </marker>
    <marker
       style="overflow:visible;"
       id="Arrow1Lend"
       refX="0.0"
       refY="0.0"
       orient="auto"
       inkscape:stockid="Arrow1Lend"
       inkscape:isstock="true">
      <path
         transform="scale(0.8) rotate(180) translate(12.5,0)"
         style="fill-rule:evenodd;fill:context-stroke;stroke:context-stroke;stroke-width:1.0pt;"
         d="M 0.0,0.0 L 5.0,-5.0 L -12.5,0.0 L 5.0,5.0 L 0.0,0.0 z "
         id="path3307" />
    </marker>
  </defs>
  <g
     inkscape:groupmode="layer"
     id="layer5"
     inkscape:label="Ai">
    <path
       id="rect915"
       style="fill:#ffffff;stroke:#ffffff;stroke-width:1.00157"
       d="M 6.5839844 7.6796875 C 6.2565828 7.6796875 5.9941406 7.9440828 5.9941406 8.2714844 L 5.9941406 19.291016 C 5.9941406 19.618417 6.2565828 19.882812 6.5839844 19.882812 L 16.0625 19.882812 L 25.541016 19.882812 C 25.868417 19.882812 26.132812 19.618417 26.132812 19.291016 L 26.132812 8.2714844 C 26.132812 7.9440828 25.868417 7.6796875 25.541016 7.6796875 L 16.0625 7.6796875 L 6.5839844 7.6796875 z M 10.025391 11.060547 C 11.365912 11.060547 12.453125 12.145806 12.453125 13.486328 C 12.453125 14.82685 11.365912 15.914062 10.025391 15.914062 C 8.6848685 15.914062 7.5976562 14.82685 7.5976562 13.486328 C 7.5976562 12.145806 8.6848685 11.060547 10.025391 11.060547 z M 22.099609 11.060547 C 23.440131 11.060547 24.527344 12.145806 24.527344 13.486328 C 24.527344 14.82685 23.440131 15.914062 22.099609 15.914062 C 20.759088 15.914062 19.673828 14.82685 19.673828 13.486328 C 19.673828 12.145806 20.759088 11.060547 22.099609 11.060547 z "
       transform="scale(0.26458333)" />
    <path
       style="fill:#ffffff;stroke:#ffffff;stroke-width:0.264999"
       id="rect917"
       width="1.8093413"
       height="1.7870034"
       x="2.7140119"
       y="6.4108758"
       ry="0.14519404"
       inkscape:path-effect="#path-effect919"
       d="m 2.859375,6.4101562 c -0.080437,10e-8 -0.1445312,0.066047 -0.1445312,0.1464844 v 1.4960938 c 0,0.080438 0.064094,0.1445312 0.1445312,0.1445312 H 4.25 5.640625 c 0.080438,0 0.1445312,-0.064094 0.1445312,-0.1445312 V 6.5566406 c 0,-0.080437 -0.064094,-0.1464844 -0.1445312,-0.1464844 H 4.25 Z"
       sodipodi:type="rect" />
    <path
       style="fill:#ffffff;stroke:#ffffff;stroke-width:0.264999"
       id="path1022"
       width="0.33506331"
       height="1.8316774"
       x="3.8755643"
       y="6.3103571"
       ry="0.14519404"
       inkscape:path-effect="#path-effect1026"
       d="m 4.0207584,6.3103571 h 0.044675 c 0.080437,0 0.145194,0.064756 0.145194,0.145194 v 1.5412894 c 0,0.080437 -0.064756,0.145194 -0.145194,0.145194 h -0.044675 c -0.080437,0 -0.1451941,-0.064756 -0.1451941,-0.145194 V 6.4555511 c 0,-0.080438 0.064757,-0.145194 0.1451941,-0.145194 z m 0.4584832,0 h -0.044675 c -0.080437,0 -0.145194,0.064756 -0.145194,0.145194 v 1.5412894 c 0,0.080437 0.064756,0.145194 0.145194,0.145194 h 0.044675 c 0.080438,0 0.1451941,-0.064756 0.1451941,-0.145194 V 6.4555511 c 0,-0.080438 -0.064757,-0.145194 -0.1451941,-0.145194 z"
       sodipodi:type="rect"
       transform="translate(0.06701279,-1.451941)" />
    <path
       style="fill:#ffffff;stroke:#ffffff;stroke-width:0.264999"
       id="path1427"
       width="0.33506331"
       height="1.8316774"
       x="3.8755643"
       y="6.3103571"
       ry="0.14519404"
       inkscape:path-effect="#path-effect1431"
       d="m 4.0207584,6.3103571 h 0.044675 c 0.080437,0 0.145194,0.064756 0.145194,0.145194 v 1.5412894 c 0,0.080437 -0.064756,0.145194 -0.145194,0.145194 h -0.044675 c -0.080437,0 -0.1451941,-0.064756 -0.1451941,-0.145194 V 6.4555511 c 0,-0.080438 0.064757,-0.145194 0.1451941,-0.145194 z m 0.4584832,0 h -0.044675 c -0.080437,0 -0.145194,0.064756 -0.145194,0.145194 v 1.5412894 c 0,0.080437 0.064756,0.145194 0.145194,0.145194 h 0.044675 c 0.080438,0 0.1451941,-0.064756 0.1451941,-0.145194 V 6.4555511 c 0,-0.080438 -0.064757,-0.145194 -0.1451941,-0.145194 z"
       sodipodi:type="rect"
       transform="matrix(0.67587352,0,0,0.67587352,1.4907174,-2.8847848)" />
    <circle
       style="fill:#ffffff;stroke:#ffffff;stroke-width:0.264999"
       id="path1455"
       cy="1.0442803"
       cx="4.3390679"
       r="0.42999777" />
  </g>
</svg>
